# xmcd CD database file
# Copyright (C) 1993-1996 Ti Kan
#
# Track frame offsets:
#  150
#  15399
#  32719
#  44606
#  54766
#  66110
#  84949
#  99354
#  110739
#  122836
#
# Disc length: 1772 seconds
#
# Revision: 1
# Processed by: cddbd v1.5.2PL0 Copyright (c) Steve Scherf et al.
# Submitted via: Advanced CD Ripper Pro 2.0
#
DISCID=7706ea0a
DTITLE=Porter Wagoner/Dolly Parton - Once More
DYEAR=1972
DGENRE=Country
TTITLE0=Fight and Sctatch
TTITLE1=A Good Understanding
TTITLE2=Once More
TTITLE3=Ragged Angel
TTITLE4=Thoughtfulness
TTITLE5=Daddy Was An Old Time Preacher Man
TTITLE6=Before Our Weakness Gets Too Strong
TTITLE7=I Know You're Married But I Love You Still
TTITLE8=One Day At A Time
TTITLE9=Let's Live For Tonight
EXTD=
EXTT0=
EXTT1=
EXTT2=
EXTT3=
EXTT4=
EXTT5=
EXTT6=
EXTT7=
EXTT8=
EXTT9=
PLAYORDER=
